PathFileType	4	(X/Y/Z)	SUBJ51_3_walk_RCNL2025.trc
DataRate	CameraRate	NumFrames	NumMarkers	Units	OrigDataRate	OrigDataStartFrame	OrigNumFrames
100	100	4	25	mm	100	172	275
Frame#	Time	R_Shoulder			L_Shoulder			C7			J_Notch			R_Elbow			L_Elbow			R_Wrist			L_Wrist			R_Asis			L_Asis			Sacral			Thoracic			Sternum			R_Thigh_Lateral			R_Knee_Lateral			R_Shank_Lateral			R_Ankle_Lateral			R_Heel			R_Toe			L_Thigh_Lateral			L_Knee_Lateral			L_Shank_Lateral			L_Ankle_Lateral			L_Heel			L_Toe		
		X1	Y1	Z1	X2	Y2	Z2	X3	Y3	Z3	X4	Y4	Z4	X5	Y5	Z5	X6	Y6	Z6	X7	Y7	Z7	X8	Y8	Z8	X9	Y9	Z9	X10	Y10	Z10	X11	Y11	Z11	X12	Y12	Z12	X13	Y13	Z13	X14	Y14	Z14	X15	Y15	Z15	X16	Y16	Z16	X17	Y17	Z17	X18	Y18	Z18	X19	Y19	Z19	X20	Y20	Z20	X21	Y21	Z21	X22	Y22	Z22	X23	Y23	Z23	X24	Y24	Z24	X25	Y25	Z25
172	1.71000000	-54.088570	1500.610352	389.629028	-23.852217	1480.416748	-65.824539	-111.281281	1612.544434	138.548141	23.201887	1488.620361	160.311462	-150.470047	1216.181519	502.482422	-86.399040	1167.907104	-154.690079	-32.440760	971.817963	514.006744	-14.798355	915.176727	-140.103298	-8.033503	1046.421143	315.157318	27.080711	1034.101685	77.941681	-203.947815	1073.879517	158.270889	-222.694550	1394.104370	143.953506	68.981613	1261.962402	180.809906	0.767264	653.540955	413.345764	1.709610	534.784180	368.774261	-164.969177	408.302490	411.430206	-325.615204	256.034637	280.839630	-343.313324	288.089569	211.902115	-276.056183	99.861145	279.882477	-9.251347	644.050720	-27.276346	-20.615768	525.598633	22.715790	-44.614025	334.484344	-16.354885	-68.508179	70.800385	95.271851	-122.416985	79.184784	150.370056	87.528008	45.591740	118.551018
173	1.72000000	-41.979504	1501.390869	389.453949	-9.262449	1482.688110	-65.955856	-97.603310	1613.779541	138.241989	36.785736	1489.836548	160.229050	-140.580811	1216.714111	500.155060	-65.594803	1170.010132	-156.854721	-28.253983	969.585144	511.305740	15.131224	920.290833	-142.463428	6.201015	1048.594604	313.572021	39.527218	1034.791626	76.184891	-190.759781	1075.242798	158.223282	-209.003006	1395.289917	142.651154	82.596634	1263.360352	179.915604	23.348314	657.658142	413.675507	27.057968	538.712646	369.109100	-136.016327	407.829712	411.441315	-291.834625	249.933380	280.659576	-311.378265	280.736450	211.548401	-234.357681	96.819969	281.675476	-3.913301	644.089905	-27.867193	-18.031113	525.616577	21.995064	-43.903839	334.654053	-16.697744	-68.433487	70.969933	95.363480	-122.294952	79.502289	150.368439	87.554131	45.544598	118.465622
174	1.73000000	-29.766466	1501.913940	389.280182	5.295396	1484.752563	-66.046173	-83.970474	1614.764038	137.974640	50.354523	1490.809204	160.158310	-130.739288	1217.066650	497.812927	-44.993198	1172.063599	-159.066635	-24.179852	967.269226	508.503998	44.881867	925.731659	-144.616024	20.499708	1050.512329	311.849426	51.962807	1035.378540	74.402176	-177.594788	1076.312012	158.328522	-195.336746	1396.246826	141.441727	96.187492	1264.513184	179.004959	45.569981	661.612610	413.821075	51.882282	542.460083	369.168243	-106.903183	406.437653	411.433655	-257.374664	242.644714	280.640930	-278.821869	272.055573	211.421768	-191.619370	93.256622	283.222198	1.330008	644.111145	-28.401369	-15.554512	525.673706	21.294804	-43.270786	334.904572	-17.033712	-68.347504	71.170883	95.469490	-122.135826	79.837288	150.409683	87.592690	45.494354	118.379036
175	1.74000000	-17.421614	1502.137939	389.111359	19.831478	1486.566040	-66.095940	-70.372780	1615.486328	137.744324	63.916080	1491.519287	160.093796	-120.961113	1217.201782	495.470276	-24.576641	1174.024292	-161.322906	-20.193274	964.860321	505.599167	74.410139	931.457642	-146.575813	34.833591	1052.117432	310.063354	64.416702	1035.837280	72.644745	-164.444702	1077.081299	158.577896	-181.694000	1396.962524	140.338089	109.765480	1265.398926	178.085236	67.399567	665.334595	413.778931	76.146187	545.959106	368.946136	-77.676468	404.204437	411.376099	-222.200394	234.264236	280.773010	-245.614670	262.091858	211.502838	-147.882858	89.376579	284.564209	6.556588	644.109253	-28.893305	-13.091713	525.762146	20.611162	-42.607655	335.226929	-17.378536	-68.250702	71.404015	95.576729	-121.923126	80.194313	150.482117	87.636810	45.439812	118.284103
